<?xml version="1.0" encoding="UTF-8" standalone="no"?>
<!DOCTYPE svg PUBLIC "-//W3C//DTD SVG 1.1//EN" "http://www.w3.org/Graphics/SVG/1.1/DTD/svg11.dtd">
<svg width="100%" height="100%" viewBox="0 0 20 16" version="1.1" xmlns="http://www.w3.org/2000/svg" xmlns:xlink="http://www.w3.org/1999/xlink" xml:space="preserve" xmlns:serif="http://www.serif.com/" style="fill-rule:evenodd;clip-rule:evenodd;stroke-linejoin:round;stroke-miterlimit:1.41421;">
    <g transform="matrix(1,0,0,1,-2,-4)">
        <path d="M20,4L4,4C2.9,4 2.01,4.9 2.01,6L2,18C2,19.1 2.9,20 4,20L20,20C21.1,20 22,19.1 22,18L22,6C22,4.9 21.1,4 20,4ZM20,8L12,13L4,8L4,6L12,11L20,6L20,8Z" style="fill:rgb(0,198,255);fill-rule:nonzero;"/>
        <rect x="0" y="0" width="24" height="24" style="fill:none;"/>
    </g>
</svg>
