<?xml version="1.0" encoding="UTF-8" standalone="no"?>
<!DOCTYPE svg PUBLIC "-//W3C//DTD SVG 1.1//EN" "http://www.w3.org/Graphics/SVG/1.1/DTD/svg11.dtd">
<svg width="100%" height="100%" viewBox="0 0 285 97" version="1.1" xmlns="http://www.w3.org/2000/svg" xmlns:xlink="http://www.w3.org/1999/xlink" xml:space="preserve" xmlns:serif="http://www.serif.com/" style="fill-rule:evenodd;clip-rule:evenodd;stroke-linejoin:round;stroke-miterlimit:1.41421;">
    <g transform="matrix(1,0,0,1,-429.643,-494.992)">
        <g transform="matrix(1,0,0,1,348.993,272.206)">
            <path d="M117.398,251.532C117.441,257.123 115.84,261.487 112.597,264.624C109.353,267.761 104.893,269.33 99.216,269.33C95.844,269.33 92.739,268.562 89.901,267.025C87.062,265.489 84.811,263.312 83.146,260.495C81.482,257.678 80.649,254.434 80.649,250.764L80.649,241.416C80.649,237.788 81.45,234.566 83.05,231.749C84.651,228.932 86.849,226.745 89.645,225.187C92.44,223.629 95.567,222.85 99.024,222.85C104.7,222.85 109.15,224.397 112.372,227.492C115.595,230.586 117.227,234.95 117.27,240.584L105.746,240.584C105.703,238.407 105.117,236.721 103.986,235.526C102.854,234.331 101.201,233.734 99.024,233.734C97.06,233.734 95.439,234.353 94.158,235.59C92.878,236.828 92.237,238.578 92.237,240.84L92.237,251.276C92.237,253.538 92.91,255.298 94.254,256.558C95.599,257.817 97.253,258.446 99.216,258.446C103.697,258.446 105.938,256.141 105.938,251.532L117.398,251.532Z" style="fill:rgb(69,211,131);fill-rule:nonzero;"/>
            <path d="M161.317,268.37L119.319,268.37L140.318,222.85L161.317,268.37ZM123.032,266.001L157.604,266.001L140.318,228.484L123.032,266.001Z" style="fill:rgb(235,0,255);fill-rule:nonzero;"/>
            <path d="M200.051,268.37L165.799,268.37L165.799,223.81L183.149,223.81C186.862,223.81 189.893,224.472 192.24,225.795C194.545,227.075 196.337,228.825 197.618,231.045C198.898,233.264 199.539,235.718 199.539,238.407C199.539,241.736 198.514,244.713 196.465,247.338C194.417,249.963 191.835,251.703 188.719,252.556L200.051,268.37ZM169.832,226.179L187.246,250.507C190.106,249.91 192.475,248.48 194.353,246.218C196.231,243.956 197.17,241.352 197.17,238.407C197.17,236.06 196.593,233.926 195.441,232.005C194.289,230.084 192.667,228.612 190.575,227.588C188.697,226.649 186.243,226.179 183.213,226.179L169.832,226.179ZM168.168,227.716L168.168,250.7L184.621,250.7L168.168,227.716ZM168.168,266.001L195.569,266.001L186.222,253.004L184.237,253.068L168.168,253.068L168.168,266.001Z" style="fill:rgb(255,122,0);fill-rule:nonzero;"/>
            <path d="M223.867,247.05C220.239,246.325 217.283,245.524 215,244.649C212.716,243.775 210.924,242.579 209.622,241.064C208.32,239.549 207.669,237.596 207.669,235.206C207.669,232.731 208.32,230.554 209.622,228.676C210.924,226.798 212.759,225.347 215.128,224.322C217.497,223.298 220.239,222.786 223.355,222.786C226.342,222.786 229.085,223.415 231.582,224.675C234.078,225.934 236.052,227.694 237.504,229.956C238.955,232.219 239.68,234.801 239.68,237.703L237.312,237.703C237.312,235.185 236.693,232.965 235.455,231.045C234.217,229.124 232.531,227.641 230.397,226.595C228.263,225.55 225.894,225.027 223.291,225.027C220.986,225.027 218.83,225.389 216.824,226.115C214.818,226.841 213.186,227.95 211.927,229.444C210.668,230.938 210.038,232.816 210.038,235.078C210.038,237.127 210.636,238.759 211.831,239.976C213.026,241.192 214.584,242.121 216.504,242.761C218.425,243.401 221.114,244.084 224.571,244.81C228.071,245.535 230.792,246.229 232.734,246.89C234.676,247.552 236.319,248.651 237.664,250.187C239.008,251.724 239.68,253.879 239.68,256.654C239.68,259.428 238.944,261.765 237.472,263.664C235.999,265.563 234.046,266.983 231.614,267.922C229.181,268.86 226.534,269.33 223.675,269.33C220.132,269.33 217.017,268.668 214.328,267.345C211.639,266.022 209.579,264.155 208.149,261.743C206.72,259.332 206.005,256.568 206.005,253.453L208.374,253.453C208.374,256.184 208.982,258.574 210.198,260.623C211.415,262.672 213.175,264.262 215.48,265.393C217.785,266.524 220.516,267.089 223.675,267.089C227.602,267.089 230.856,266.15 233.438,264.272C236.02,262.394 237.312,259.833 237.312,256.59C237.312,254.37 236.757,252.663 235.647,251.468C234.537,250.273 233.139,249.408 231.454,248.875C229.768,248.341 227.239,247.733 223.867,247.05Z" style="fill:rgb(0,154,255);fill-rule:nonzero;"/>
            <path d="M263.048,268.37L263.048,235.078L246.211,235.078L246.211,223.81L282.191,223.81L282.191,235.078L265.353,235.078L265.353,268.37L263.048,268.37Z" style="fill:rgb(255,0,112);fill-rule:nonzero;"/>
            <path d="M290.13,223.81L321.501,223.81L321.501,226.179L292.499,226.179L292.499,244.233L317.723,244.233L317.723,246.602L292.499,246.602L292.499,266.001L321.501,266.001L321.501,268.37L290.13,268.37L290.13,223.81Z" style="fill:rgb(148,0,255);fill-rule:nonzero;"/>
            <path d="M329.439,268.306L329.439,223.746L331.936,223.746L363.051,254.029L363.051,223.746L365.42,223.746L365.42,268.306L329.439,268.306Z" style="fill:rgb(0,168,255);fill-rule:nonzero;"/>
            <path d="M81.674,318.306L81.674,273.746L84.171,273.746L115.285,304.029L115.285,273.746L117.654,273.746L117.654,318.306L81.674,318.306Z" style="fill:rgb(255,93,92);fill-rule:nonzero;"/>
            <path d="M154.787,273.81L154.787,276.179L141.47,276.179L141.47,316.001L154.787,316.001L154.787,318.37L125.913,318.37L125.913,316.001L139.166,316.001L139.166,276.179L125.913,276.179L125.913,273.81L154.787,273.81Z" style="fill:rgb(0,128,255);fill-rule:nonzero;"/>
            <path d="M166.247,273.81L197.618,273.81L197.618,276.179L168.616,276.179L168.616,294.233L193.841,294.233L193.841,296.602L168.616,296.602L168.616,316.001L197.618,316.001L197.618,318.37L166.247,318.37L166.247,273.81Z" style="fill:rgb(87,0,255);fill-rule:nonzero;"/>
            <path d="M242.369,307.038L242.369,318.37L208.438,318.37L208.438,273.81L210.806,273.81L210.806,307.038L242.369,307.038Z" style="fill:rgb(255,187,0);fill-rule:nonzero;"/>
            <path d="M265.161,297.05C261.533,296.325 258.578,295.524 256.294,294.649C254.011,293.775 252.218,292.579 250.916,291.064C249.614,289.549 248.964,287.596 248.964,285.206C248.964,282.731 249.614,280.554 250.916,278.676C252.218,276.798 254.053,275.347 256.422,274.322C258.791,273.298 261.533,272.786 264.649,272.786C267.637,272.786 270.379,273.415 272.876,274.675C275.373,275.934 277.347,277.694 278.798,279.956C280.249,282.219 280.975,284.801 280.975,287.703L278.606,287.703C278.606,285.185 277.987,282.965 276.749,281.045C275.511,279.124 273.825,277.641 271.691,276.595C269.557,275.55 267.189,275.027 264.585,275.027C262.28,275.027 260.125,275.389 258.119,276.115C256.113,276.841 254.48,277.95 253.221,279.444C251.962,280.938 251.332,282.816 251.332,285.078C251.332,287.127 251.93,288.759 253.125,289.976C254.32,291.192 255.878,292.121 257.799,292.761C259.719,293.401 262.408,294.084 265.865,294.81C269.365,295.535 272.086,296.229 274.028,296.89C275.97,297.552 277.613,298.651 278.958,300.187C280.302,301.724 280.975,303.879 280.975,306.654C280.975,309.428 280.238,311.765 278.766,313.664C277.293,315.563 275.341,316.983 272.908,317.922C270.475,318.86 267.829,319.33 264.969,319.33C261.427,319.33 258.311,318.668 255.622,317.345C252.933,316.022 250.874,314.155 249.444,311.743C248.014,309.332 247.299,306.568 247.299,303.453L249.668,303.453C249.668,306.184 250.276,308.574 251.492,310.623C252.709,312.672 254.469,314.262 256.774,315.393C259.079,316.524 261.811,317.089 264.969,317.089C268.896,317.089 272.15,316.15 274.732,314.272C277.315,312.394 278.606,309.833 278.606,306.59C278.606,304.37 278.051,302.663 276.941,301.468C275.831,300.273 274.434,299.408 272.748,298.875C271.062,298.341 268.533,297.733 265.161,297.05Z" style="fill:rgb(0,204,255);fill-rule:nonzero;"/>
            <path d="M290.13,273.81L321.501,273.81L321.501,276.179L292.499,276.179L292.499,294.233L317.723,294.233L317.723,296.602L292.499,296.602L292.499,316.001L321.501,316.001L321.501,318.37L290.13,318.37L290.13,273.81Z" style="fill:rgb(36,171,95);fill-rule:nonzero;"/>
            <path d="M329.439,318.306L329.439,273.746L331.936,273.746L363.051,304.029L363.051,273.746L365.42,273.746L365.42,318.306L329.439,318.306Z" style="fill:rgb(255,0,94);fill-rule:nonzero;"/>
        </g>
    </g>
</svg>
